<?xml version="1.0" encoding="UTF-8" standalone="no"?>
<!DOCTYPE svg PUBLIC "-//W3C//DTD SVG 1.1//EN" "http://www.w3.org/Graphics/SVG/1.1/DTD/svg11.dtd">
<svg width="100%" height="100%" viewBox="0 0 17 17" version="1.1" xmlns="http://www.w3.org/2000/svg" xmlns:xlink="http://www.w3.org/1999/xlink" xml:space="preserve" xmlns:serif="http://www.serif.com/" style="fill-rule:evenodd;clip-rule:evenodd;stroke-linejoin:round;stroke-miterlimit:2;">
    <g id="Icon" transform="matrix(0.03125,0,0,0.03125,0.5,0.5)">
        <rect id="Background" x="0" y="0" width="512" height="512" style="fill:rgb(255,253,253);stroke:black;stroke-width:32px;"/>
        <g id="Glyph" transform="matrix(1,0,0,1,52,79)">
            <g id="Triangle" transform="matrix(1,0,0,-1,0,354)">
                <path id="path-2" d="M204.4,27L331.8,327L77,327L204.4,27Z"/>
                <path id="path-21" serif:id="path-2" d="M204.4,27L331.8,327L77,327L204.4,27Z" style="stroke:rgb(151,151,151);stroke-width:1px;stroke-linejoin:miter;stroke-miterlimit:4;"/>
            </g>
            <g id="Triangle-2" transform="matrix(1,0,0,-1,0,208)">
                <path id="path-4" d="M204.219,29L262.438,179L146,179L204.219,29Z"/>
                <path id="path-41" serif:id="path-4" d="M204.219,29L262.438,179L146,179L204.219,29Z" style="stroke:rgb(151,151,151);stroke-width:1px;stroke-linejoin:miter;stroke-miterlimit:4;"/>
            </g>
            <g id="Path-2">
                <path id="path-3" d="M0,27L407.479,27L407.479,377L286.748,202L132.093,202L0,377L0,27Z"/>
                <path id="path-31" serif:id="path-3" d="M0,27L407.479,27L407.479,377L286.748,202L132.093,202L0,377L0,27Z" style="stroke:rgb(151,151,151);stroke-width:1px;stroke-linejoin:miter;stroke-miterlimit:4;"/>
            </g>
            <g id="Cells-Table-Divider" serif:id="Cells/Table/Divider" transform="matrix(1,0,0,1,54,91)">
                <rect id="Bar" x="0" y="0" width="300" height="25.5" style="stroke:rgb(255,245,245);stroke-width:32px;"/>
                <g id="Cells-Table-Divider1" serif:id="Cells/Table/Divider" transform="matrix(1,0,0,1,0,60)">
                    <rect id="Bar1" serif:id="Bar" x="0" y="0" width="300" height="25.5" style="stroke:rgb(255,245,245);stroke-width:32px;"/>
                </g>
                <g id="Cells-Table-Divider2" serif:id="Cells/Table/Divider" transform="matrix(1,0,0,1,0,120)">
                    <rect id="Bar2" serif:id="Bar" x="0" y="0" width="300" height="25.5" style="stroke:rgb(255,245,245);stroke-width:32px;"/>
                </g>
            </g>
        </g>
        <path id="Smooth-Corners" d="M146.141,0C95.325,0 76.898,5.291 58.32,15.227C39.742,25.162 25.162,39.742 15.227,58.32C5.291,76.898 0,95.325 0,146.141L0,0L146.141,0ZM365.859,0L512,0L512,146.141C512,95.325 506.709,76.898 496.773,58.32C486.838,39.742 472.258,25.162 453.68,15.227C435.102,5.291 416.675,0 365.859,0ZM512,365.859L512,512L365.859,512C416.675,512 435.102,506.709 453.68,496.773C472.258,486.838 486.838,472.258 496.773,453.68C506.709,435.102 512,416.675 512,365.859ZM146.141,512L0,512L0,365.859C0,416.675 5.291,435.102 15.227,453.68C25.162,472.258 39.742,486.838 58.32,496.773C76.898,506.709 95.325,512 146.141,512Z"/>
    </g>
</svg>
